<?xml version="1.0" encoding="UTF-8"?>
<svg width="41px" height="27px" viewBox="0 0 41 27" version="1.1" xmlns="http://www.w3.org/2000/svg" xmlns:xlink="http://www.w3.org/1999/xlink">
    <!-- Generator: Sketch 47.1 (45422) - http://www.bohemiancoding.com/sketch -->
    <title>Shape</title>
    <desc>Created with Sketch.</desc>
    <defs></defs>
    <g id="Page-1" stroke="none" stroke-width="1" fill="none" fill-rule="evenodd">
        <g id="Desktop-HD-Copy" transform="translate(-619.000000, -2248.000000)" fill="#E2E2E8">
            <path d="M658.717,2250.56719 C652.551,2250.56719 647.225,2254.23346 644.778,2259.50585 C646.04,2258.73179 647.522,2258.28476 649.107,2258.28476 C653.699,2258.28476 657.441,2262.03304 657.441,2266.64238 C657.441,2271.25172 653.699,2275 649.107,2275 C644.514,2275 640.779,2271.25172 640.779,2266.64238 C640.779,2266.47837 640.785,2266.31636 640.794,2266.15434 C640.788,2266.10334 640.779,2266.05434 640.779,2266.00233 C640.779,2256.0746 648.825,2248 658.717,2248 C659.431,2248 660,2248.57104 660,2249.28009 C660,2249.99715 659.431,2250.56719 658.717,2250.56719 L658.717,2250.56719 Z M636.937,2250.56719 C630.769,2250.56719 625.439,2254.23646 622.99,2259.51085 C624.254,2258.7338 625.739,2258.28476 627.327,2258.28476 C631.919,2258.28476 635.655,2262.03304 635.655,2266.64238 C635.655,2271.25172 631.919,2275 627.327,2275 C622.735,2275 619,2271.25172 619,2266.64238 C619,2266.47937 619.006,2266.31636 619.015,2266.15534 C619.009,2266.10434 619,2266.05434 619,2266.00233 C619,2256.0746 627.045,2248 636.937,2248 C637.644,2248 638.221,2248.57104 638.221,2249.28009 C638.221,2249.99715 637.644,2250.56719 636.937,2250.56719 L636.937,2250.56719 Z" id="Shape"></path>
        </g>
    </g>
</svg>